<svg id="visual" viewBox="0 0 900 450" width="900" height="450" xmlns="http://www.w3.org/2000/svg" xmlns:xlink="http://www.w3.org/1999/xlink" version="1.1"><rect x="0" y="0" width="900" height="450" fill="#002233"></rect><path d="M0 381L21.5 370.7C43 360.3 86 339.7 128.8 341C171.7 342.3 214.3 365.7 257.2 369.2C300 372.7 343 356.3 385.8 353.3C428.7 350.3 471.3 360.7 514.2 356.2C557 351.7 600 332.3 642.8 320C685.7 307.7 728.3 302.3 771.2 312.5C814 322.7 857 348.3 878.5 361.2L900 374L900 451L878.5 451C857 451 814 451 771.2 451C728.3 451 685.7 451 642.8 451C600 451 557 451 514.2 451C471.3 451 428.7 451 385.8 451C343 451 300 451 257.2 451C214.3 451 171.7 451 128.8 451C86 451 43 451 21.5 451L0 451Z" fill="#0066FF" stroke-linecap="round" stroke-linejoin="miter"></path></svg>